<svg xmlns="http://www.w3.org/2000/svg" xmlns:xlink="http://www.w3.org/1999/xlink" width="300" zoomAndPan="magnify" viewBox="0 0 224.87999 89.999999" height="120" preserveAspectRatio="xMidYMid meet" version="1.0"><defs><g/><clipPath id="1363c325ae"><path d="M 0 0.0234375 L 224.761719 0.0234375 L 224.761719 89.976562 L 0 89.976562 Z M 0 0.0234375 " clip-rule="nonzero"/></clipPath><clipPath id="44c7927b8c"><path d="M 43.578125 15.199219 L 55 15.199219 L 55 74.800781 L 43.578125 74.800781 Z M 43.578125 15.199219 " clip-rule="nonzero"/></clipPath><clipPath id="b107ab0f92"><path d="M 57.199219 15.199219 L 68.777344 15.199219 L 68.777344 74.800781 L 57.199219 74.800781 Z M 57.199219 15.199219 " clip-rule="nonzero"/></clipPath><clipPath id="9ca513b31a"><path d="M 70.820312 15.199219 L 82.398438 15.199219 L 82.398438 74.800781 L 70.820312 74.800781 Z M 70.820312 15.199219 " clip-rule="nonzero"/></clipPath></defs><g clip-path="url(#1363c325ae)"><path fill="#ffffff" d="M 0 0.0234375 L 224.878906 0.0234375 L 224.878906 97.472656 L 0 97.472656 Z M 0 0.0234375 " fill-opacity="1" fill-rule="nonzero"/><path fill="#ffffff" d="M 0 0.0234375 L 224.878906 0.0234375 L 224.878906 89.976562 L 0 89.976562 Z M 0 0.0234375 " fill-opacity="1" fill-rule="nonzero"/><path fill="#203044" d="M 0 0.0234375 L 224.878906 0.0234375 L 224.878906 89.976562 L 0 89.976562 Z M 0 0.0234375 " fill-opacity="1" fill-rule="nonzero"/></g><g clip-path="url(#44c7927b8c)"><path fill="#db8617" d="M 43.578125 15.199219 L 54.964844 15.199219 L 54.964844 74.648438 L 43.578125 74.648438 Z M 43.578125 15.199219 " fill-opacity="1" fill-rule="nonzero"/></g><g clip-path="url(#b107ab0f92)"><path fill="#62e0a5" d="M 57.199219 15.199219 L 68.585938 15.199219 L 68.585938 74.648438 L 57.199219 74.648438 Z M 57.199219 15.199219 " fill-opacity="1" fill-rule="nonzero"/></g><g clip-path="url(#9ca513b31a)"><path fill="#79ced4" d="M 70.820312 15.199219 L 82.207031 15.199219 L 82.207031 74.648438 L 70.820312 74.648438 Z M 70.820312 15.199219 " fill-opacity="1" fill-rule="nonzero"/></g><g fill="#ffffff" fill-opacity="1"><g transform="translate(90.339054, 43.433066)"><g><path d="M 0.859375 0 L 0.859375 -9.984375 L 3.59375 -9.984375 L 3.59375 0 Z M 0.859375 0 "/></g></g></g><g fill="#ffffff" fill-opacity="1"><g transform="translate(94.794491, 43.433066)"><g><path d="M 8.40625 0 L 8.40625 -5.265625 L 6.734375 -1.5625 L 5.265625 -1.5625 L 3.59375 -5.265625 L 3.59375 0 L 0.859375 0 L 0.859375 -9.984375 L 3.859375 -9.984375 L 6 -5.28125 L 8.171875 -9.984375 L 11.15625 -9.984375 L 11.15625 0 Z M 8.40625 0 "/></g></g></g><g fill="#ffffff" fill-opacity="1"><g transform="translate(106.797468, 43.433066)"><g><path d="M 0.859375 0 L 0.859375 -9.984375 L 4.703125 -9.984375 C 5.523438 -9.984375 6.25 -9.851562 6.875 -9.59375 C 7.5 -9.332031 8.019531 -8.972656 8.4375 -8.515625 C 8.863281 -8.066406 9.1875 -7.539062 9.40625 -6.9375 C 9.625 -6.332031 9.734375 -5.6875 9.734375 -5 C 9.734375 -4.238281 9.613281 -3.550781 9.375 -2.9375 C 9.132812 -2.332031 8.789062 -1.8125 8.34375 -1.375 C 7.90625 -0.9375 7.375 -0.597656 6.75 -0.359375 C 6.132812 -0.117188 5.453125 0 4.703125 0 Z M 6.953125 -5 C 6.953125 -5.382812 6.898438 -5.734375 6.796875 -6.046875 C 6.691406 -6.367188 6.539062 -6.644531 6.34375 -6.875 C 6.15625 -7.101562 5.921875 -7.28125 5.640625 -7.40625 C 5.359375 -7.53125 5.046875 -7.59375 4.703125 -7.59375 L 3.59375 -7.59375 L 3.59375 -2.390625 L 4.703125 -2.390625 C 5.054688 -2.390625 5.375 -2.453125 5.65625 -2.578125 C 5.9375 -2.710938 6.171875 -2.894531 6.359375 -3.125 C 6.554688 -3.363281 6.703125 -3.640625 6.796875 -3.953125 C 6.898438 -4.273438 6.953125 -4.625 6.953125 -5 Z M 6.953125 -5 "/></g></g></g><g fill="#ffffff" fill-opacity="1"><g transform="translate(116.874907, 43.433066)"><g><path d="M 0.859375 0 L 0.859375 -9.984375 L 5.4375 -9.984375 C 5.925781 -9.984375 6.375 -9.878906 6.78125 -9.671875 C 7.195312 -9.472656 7.550781 -9.210938 7.84375 -8.890625 C 8.144531 -8.566406 8.378906 -8.195312 8.546875 -7.78125 C 8.710938 -7.363281 8.796875 -6.945312 8.796875 -6.53125 C 8.796875 -5.945312 8.671875 -5.398438 8.421875 -4.890625 C 8.171875 -4.390625 7.820312 -3.984375 7.375 -3.671875 L 9.625 0 L 6.53125 0 L 4.625 -3.0625 L 3.59375 -3.0625 L 3.59375 0 Z M 3.59375 -5.453125 L 5.328125 -5.453125 C 5.492188 -5.453125 5.648438 -5.546875 5.796875 -5.734375 C 5.941406 -5.921875 6.015625 -6.1875 6.015625 -6.53125 C 6.015625 -6.875 5.929688 -7.132812 5.765625 -7.3125 C 5.597656 -7.5 5.429688 -7.59375 5.265625 -7.59375 L 3.59375 -7.59375 Z M 3.59375 -5.453125 "/></g></g></g><g fill="#ffffff" fill-opacity="1"><g transform="translate(126.516636, 43.433066)"><g><path d="M -0.109375 0 L 3.609375 -9.984375 L 5.828125 -9.984375 L 9.546875 0 L 6.65625 0 L 6.046875 -1.953125 L 3.390625 -1.953125 L 2.796875 0 Z M 4.71875 -7.125 L 3.796875 -3.78125 L 5.609375 -3.78125 Z M 4.71875 -7.125 "/></g></g></g><g fill="#ffffff" fill-opacity="1"><g transform="translate(135.947549, 43.433066)"><g><path d="M 7.078125 -0.8125 C 6.441406 -0.226562 5.710938 0.0625 4.890625 0.0625 C 4.273438 0.0625 3.691406 -0.0703125 3.140625 -0.34375 C 2.585938 -0.625 2.097656 -1 1.671875 -1.46875 C 1.253906 -1.9375 0.925781 -2.476562 0.6875 -3.09375 C 0.445312 -3.71875 0.328125 -4.378906 0.328125 -5.078125 C 0.328125 -5.773438 0.445312 -6.425781 0.6875 -7.03125 C 0.9375 -7.632812 1.28125 -8.160156 1.71875 -8.609375 C 2.15625 -9.054688 2.664062 -9.40625 3.25 -9.65625 C 3.84375 -9.914062 4.476562 -10.046875 5.15625 -10.046875 C 5.582031 -10.046875 5.988281 -10 6.375 -9.90625 C 6.757812 -9.8125 7.113281 -9.664062 7.4375 -9.46875 C 7.769531 -9.28125 8.0625 -9.050781 8.3125 -8.78125 C 8.570312 -8.507812 8.785156 -8.207031 8.953125 -7.875 L 6.921875 -6.3125 C 6.753906 -6.707031 6.5 -7.023438 6.15625 -7.265625 C 5.8125 -7.503906 5.445312 -7.625 5.0625 -7.625 C 4.78125 -7.625 4.519531 -7.554688 4.28125 -7.421875 C 4.039062 -7.296875 3.832031 -7.113281 3.65625 -6.875 C 3.488281 -6.644531 3.351562 -6.363281 3.25 -6.03125 C 3.15625 -5.707031 3.109375 -5.359375 3.109375 -4.984375 C 3.109375 -4.585938 3.15625 -4.226562 3.25 -3.90625 C 3.351562 -3.59375 3.492188 -3.316406 3.671875 -3.078125 C 3.847656 -2.847656 4.0625 -2.671875 4.3125 -2.546875 C 4.5625 -2.421875 4.832031 -2.359375 5.125 -2.359375 C 5.46875 -2.359375 5.796875 -2.441406 6.109375 -2.609375 C 6.421875 -2.785156 6.710938 -3.03125 6.984375 -3.34375 L 5.234375 -3.34375 L 5.234375 -5.3125 L 9.34375 -5.3125 L 9.34375 0 L 7.078125 0 Z M 7.078125 -0.8125 "/></g></g></g><g fill="#ffffff" fill-opacity="1"><g transform="translate(145.771994, 43.433066)"><g><path d="M 5.09375 0.078125 C 4.375 0.078125 3.722656 -0.0625 3.140625 -0.34375 C 2.554688 -0.632812 2.054688 -1.015625 1.640625 -1.484375 C 1.222656 -1.960938 0.898438 -2.503906 0.671875 -3.109375 C 0.441406 -3.722656 0.328125 -4.351562 0.328125 -5 C 0.328125 -5.65625 0.445312 -6.285156 0.6875 -6.890625 C 0.925781 -7.503906 1.257812 -8.039062 1.6875 -8.5 C 2.113281 -8.96875 2.617188 -9.34375 3.203125 -9.625 C 3.796875 -9.90625 4.441406 -10.046875 5.140625 -10.046875 C 5.859375 -10.046875 6.507812 -9.898438 7.09375 -9.609375 C 7.675781 -9.316406 8.175781 -8.929688 8.59375 -8.453125 C 9.007812 -7.972656 9.332031 -7.425781 9.5625 -6.8125 C 9.789062 -6.207031 9.90625 -5.585938 9.90625 -4.953125 C 9.90625 -4.296875 9.785156 -3.664062 9.546875 -3.0625 C 9.304688 -2.457031 8.972656 -1.921875 8.546875 -1.453125 C 8.128906 -0.992188 7.625 -0.625 7.03125 -0.34375 C 6.4375 -0.0625 5.789062 0.078125 5.09375 0.078125 Z M 3.109375 -4.984375 C 3.109375 -4.640625 3.144531 -4.3125 3.21875 -4 C 3.300781 -3.6875 3.425781 -3.40625 3.59375 -3.15625 C 3.769531 -2.914062 3.984375 -2.71875 4.234375 -2.5625 C 4.484375 -2.414062 4.78125 -2.34375 5.125 -2.34375 C 5.46875 -2.34375 5.765625 -2.421875 6.015625 -2.578125 C 6.265625 -2.734375 6.46875 -2.9375 6.625 -3.1875 C 6.789062 -3.4375 6.910156 -3.71875 6.984375 -4.03125 C 7.066406 -4.351562 7.109375 -4.675781 7.109375 -5 C 7.109375 -5.34375 7.066406 -5.671875 6.984375 -5.984375 C 6.898438 -6.296875 6.773438 -6.570312 6.609375 -6.8125 C 6.453125 -7.050781 6.242188 -7.242188 5.984375 -7.390625 C 5.734375 -7.535156 5.441406 -7.609375 5.109375 -7.609375 C 4.753906 -7.609375 4.453125 -7.53125 4.203125 -7.375 C 3.960938 -7.226562 3.757812 -7.03125 3.59375 -6.78125 C 3.425781 -6.53125 3.300781 -6.25 3.21875 -5.9375 C 3.144531 -5.625 3.109375 -5.304688 3.109375 -4.984375 Z M 3.109375 -4.984375 "/></g></g></g><g fill="#ffffff" fill-opacity="1"><g transform="translate(155.989981, 43.433066)"><g><path d="M 3.59375 -4.90625 L 3.59375 0 L 0.859375 0 L 0.859375 -9.984375 L 3 -9.984375 L 7 -4.90625 L 7 -9.984375 L 9.75 -9.984375 L 9.75 0 L 7.5625 0 Z M 3.59375 -4.90625 "/></g></g></g><g fill="#ffffff" fill-opacity="1"><g transform="translate(166.58746, 43.433066)"><g><path d="M 6.90625 -6.71875 C 6.625 -6.882812 6.332031 -7.035156 6.03125 -7.171875 C 5.78125 -7.285156 5.492188 -7.390625 5.171875 -7.484375 C 4.859375 -7.585938 4.554688 -7.640625 4.265625 -7.640625 C 4.015625 -7.640625 3.816406 -7.597656 3.671875 -7.515625 C 3.523438 -7.441406 3.453125 -7.316406 3.453125 -7.140625 C 3.453125 -7.015625 3.492188 -6.90625 3.578125 -6.8125 C 3.671875 -6.726562 3.796875 -6.648438 3.953125 -6.578125 C 4.109375 -6.515625 4.300781 -6.445312 4.53125 -6.375 C 4.757812 -6.3125 5.019531 -6.234375 5.3125 -6.140625 C 5.769531 -6.003906 6.179688 -5.847656 6.546875 -5.671875 C 6.921875 -5.503906 7.238281 -5.304688 7.5 -5.078125 C 7.769531 -4.847656 7.972656 -4.566406 8.109375 -4.234375 C 8.253906 -3.910156 8.328125 -3.515625 8.328125 -3.046875 C 8.328125 -2.453125 8.210938 -1.945312 7.984375 -1.53125 C 7.765625 -1.125 7.472656 -0.800781 7.109375 -0.5625 C 6.753906 -0.320312 6.347656 -0.144531 5.890625 -0.03125 C 5.441406 0.0703125 4.988281 0.125 4.53125 0.125 C 4.164062 0.125 3.789062 0.09375 3.40625 0.03125 C 3.019531 -0.0195312 2.632812 -0.09375 2.25 -0.1875 C 1.875 -0.289062 1.507812 -0.410156 1.15625 -0.546875 C 0.800781 -0.691406 0.476562 -0.859375 0.1875 -1.046875 L 1.359375 -3.4375 C 1.691406 -3.238281 2.035156 -3.054688 2.390625 -2.890625 C 2.691406 -2.753906 3.03125 -2.628906 3.40625 -2.515625 C 3.789062 -2.398438 4.175781 -2.34375 4.5625 -2.34375 C 4.863281 -2.34375 5.070312 -2.382812 5.1875 -2.46875 C 5.3125 -2.550781 5.375 -2.65625 5.375 -2.78125 C 5.375 -2.925781 5.3125 -3.046875 5.1875 -3.140625 C 5.070312 -3.242188 4.910156 -3.332031 4.703125 -3.40625 C 4.503906 -3.476562 4.269531 -3.550781 4 -3.625 C 3.726562 -3.695312 3.445312 -3.785156 3.15625 -3.890625 C 2.707031 -4.046875 2.320312 -4.207031 2 -4.375 C 1.6875 -4.550781 1.425781 -4.75 1.21875 -4.96875 C 1.007812 -5.1875 0.859375 -5.4375 0.765625 -5.71875 C 0.671875 -6 0.625 -6.320312 0.625 -6.6875 C 0.625 -7.238281 0.722656 -7.722656 0.921875 -8.140625 C 1.117188 -8.566406 1.390625 -8.921875 1.734375 -9.203125 C 2.085938 -9.484375 2.484375 -9.695312 2.921875 -9.84375 C 3.367188 -9.988281 3.84375 -10.0625 4.34375 -10.0625 C 4.707031 -10.0625 5.0625 -10.023438 5.40625 -9.953125 C 5.757812 -9.890625 6.097656 -9.800781 6.421875 -9.6875 C 6.742188 -9.582031 7.046875 -9.46875 7.328125 -9.34375 C 7.609375 -9.21875 7.859375 -9.097656 8.078125 -8.984375 Z M 6.90625 -6.71875 "/></g></g></g><g fill="#ffffff" fill-opacity="1"><g transform="translate(90.339054, 56.870535)"><g><path d="M -0.109375 0 L 3.609375 -9.984375 L 5.828125 -9.984375 L 9.546875 0 L 6.65625 0 L 6.046875 -1.953125 L 3.390625 -1.953125 L 2.796875 0 Z M 4.71875 -7.125 L 3.796875 -3.78125 L 5.609375 -3.78125 Z M 4.71875 -7.125 "/></g></g></g><g fill="#ffffff" fill-opacity="1"><g transform="translate(99.769967, 56.870535)"><g><path d="M 0.859375 0 L 0.859375 -9.984375 L 5.15625 -9.984375 C 5.644531 -9.984375 6.09375 -9.878906 6.5 -9.671875 C 6.914062 -9.472656 7.269531 -9.210938 7.5625 -8.890625 C 7.863281 -8.566406 8.097656 -8.195312 8.265625 -7.78125 C 8.429688 -7.363281 8.515625 -6.945312 8.515625 -6.53125 C 8.515625 -6.082031 8.4375 -5.648438 8.28125 -5.234375 C 8.125 -4.816406 7.898438 -4.445312 7.609375 -4.125 C 7.328125 -3.800781 6.984375 -3.539062 6.578125 -3.34375 C 6.171875 -3.15625 5.722656 -3.0625 5.234375 -3.0625 L 3.59375 -3.0625 L 3.59375 0 Z M 3.59375 -5.453125 L 5.046875 -5.453125 C 5.210938 -5.453125 5.367188 -5.53125 5.515625 -5.6875 C 5.660156 -5.84375 5.734375 -6.125 5.734375 -6.53125 C 5.734375 -6.9375 5.648438 -7.210938 5.484375 -7.359375 C 5.316406 -7.515625 5.148438 -7.59375 4.984375 -7.59375 L 3.59375 -7.59375 Z M 3.59375 -5.453125 "/></g></g></g><g fill="#ffffff" fill-opacity="1"><g transform="translate(108.484074, 56.870535)"><g><path d="M 0.859375 0 L 0.859375 -9.984375 L 3.59375 -9.984375 L 3.59375 0 Z M 0.859375 0 "/></g></g></g><g fill="#ffffff" fill-opacity="1"><g transform="translate(90.339054, 30.649147)"><g><path d="M 0.84375 -0.390625 C 0.894531 -0.390625 0.9375 -0.398438 0.96875 -0.421875 C 1.007812 -0.441406 1.039062 -0.46875 1.0625 -0.5 C 1.09375 -0.539062 1.113281 -0.585938 1.125 -0.640625 C 1.132812 -0.691406 1.140625 -0.742188 1.140625 -0.796875 L 1.140625 -1.625 L 1.59375 -1.625 L 1.59375 -0.796875 C 1.59375 -0.679688 1.578125 -0.570312 1.546875 -0.46875 C 1.515625 -0.375 1.46875 -0.289062 1.40625 -0.21875 C 1.34375 -0.144531 1.265625 -0.0859375 1.171875 -0.046875 C 1.078125 -0.00390625 0.96875 0.015625 0.84375 0.015625 C 0.71875 0.015625 0.609375 -0.00390625 0.515625 -0.046875 C 0.421875 -0.0859375 0.34375 -0.144531 0.28125 -0.21875 C 0.226562 -0.300781 0.1875 -0.390625 0.15625 -0.484375 C 0.125 -0.578125 0.109375 -0.679688 0.109375 -0.796875 L 0.109375 -1.625 L 0.5625 -1.625 L 0.5625 -0.796875 C 0.5625 -0.742188 0.566406 -0.691406 0.578125 -0.640625 C 0.585938 -0.585938 0.601562 -0.539062 0.625 -0.5 C 0.644531 -0.46875 0.671875 -0.441406 0.703125 -0.421875 C 0.742188 -0.398438 0.789062 -0.390625 0.84375 -0.390625 Z M 0.84375 -0.390625 "/></g></g></g><g fill="#ffffff" fill-opacity="1"><g transform="translate(92.03796, 30.649147)"><g><path d="M 0.59375 -0.796875 L 0.59375 0 L 0.140625 0 L 0.140625 -1.625 L 0.484375 -1.625 L 1.140625 -0.796875 L 1.140625 -1.625 L 1.59375 -1.625 L 1.59375 0 L 1.234375 0 Z M 0.59375 -0.796875 "/></g></g></g><g fill="#ffffff" fill-opacity="1"><g transform="translate(93.766672, 30.649147)"><g><path d="M 0.59375 -0.796875 L 0.59375 0 L 0.140625 0 L 0.140625 -1.625 L 0.484375 -1.625 L 1.140625 -0.796875 L 1.140625 -1.625 L 1.59375 -1.625 L 1.59375 0 L 1.234375 0 Z M 0.59375 -0.796875 "/></g></g></g><g fill="#ffffff" fill-opacity="1"><g transform="translate(95.495384, 30.649147)"><g><path d="M 1.296875 -0.390625 L 1.296875 0 L 0.140625 0 L 0.140625 -1.625 L 1.28125 -1.625 L 1.28125 -1.234375 L 0.59375 -1.234375 L 0.59375 -1.015625 L 1.1875 -1.015625 L 1.1875 -0.640625 L 0.59375 -0.640625 L 0.59375 -0.390625 Z M 1.296875 -0.390625 "/></g></g></g><g fill="#ffffff" fill-opacity="1"><g transform="translate(96.864138, 30.649147)"><g><path d="M 0.046875 -0.828125 C 0.046875 -0.929688 0.0625 -1.03125 0.09375 -1.125 C 0.132812 -1.21875 0.1875 -1.300781 0.25 -1.375 C 0.320312 -1.457031 0.40625 -1.519531 0.5 -1.5625 C 0.601562 -1.613281 0.71875 -1.640625 0.84375 -1.640625 C 0.988281 -1.640625 1.113281 -1.601562 1.21875 -1.53125 C 1.320312 -1.46875 1.398438 -1.382812 1.453125 -1.28125 L 1.125 -1.046875 C 1.101562 -1.078125 1.082031 -1.101562 1.0625 -1.125 C 1.039062 -1.15625 1.015625 -1.175781 0.984375 -1.1875 C 0.960938 -1.207031 0.9375 -1.222656 0.90625 -1.234375 C 0.875 -1.242188 0.847656 -1.25 0.828125 -1.25 C 0.773438 -1.25 0.726562 -1.234375 0.6875 -1.203125 C 0.644531 -1.179688 0.609375 -1.148438 0.578125 -1.109375 C 0.554688 -1.066406 0.535156 -1.019531 0.515625 -0.96875 C 0.503906 -0.914062 0.5 -0.863281 0.5 -0.8125 C 0.5 -0.757812 0.503906 -0.707031 0.515625 -0.65625 C 0.535156 -0.601562 0.5625 -0.554688 0.59375 -0.515625 C 0.625 -0.472656 0.65625 -0.441406 0.6875 -0.421875 C 0.726562 -0.398438 0.773438 -0.390625 0.828125 -0.390625 C 0.859375 -0.390625 0.882812 -0.390625 0.90625 -0.390625 C 0.9375 -0.398438 0.960938 -0.410156 0.984375 -0.421875 C 1.015625 -0.441406 1.039062 -0.460938 1.0625 -0.484375 C 1.082031 -0.515625 1.097656 -0.546875 1.109375 -0.578125 L 1.484375 -0.359375 C 1.453125 -0.304688 1.410156 -0.253906 1.359375 -0.203125 C 1.316406 -0.160156 1.265625 -0.117188 1.203125 -0.078125 C 1.148438 -0.046875 1.085938 -0.0195312 1.015625 0 C 0.953125 0.0078125 0.890625 0.015625 0.828125 0.015625 C 0.710938 0.015625 0.609375 -0.00390625 0.515625 -0.046875 C 0.421875 -0.0976562 0.335938 -0.164062 0.265625 -0.25 C 0.203125 -0.332031 0.148438 -0.421875 0.109375 -0.515625 C 0.0664062 -0.617188 0.046875 -0.722656 0.046875 -0.828125 Z M 0.046875 -0.828125 "/></g></g></g><g fill="#ffffff" fill-opacity="1"><g transform="translate(98.365872, 30.649147)"><g><path d="M 1.296875 -0.390625 L 1.296875 0 L 0.140625 0 L 0.140625 -1.625 L 1.28125 -1.625 L 1.28125 -1.234375 L 0.59375 -1.234375 L 0.59375 -1.015625 L 1.1875 -1.015625 L 1.1875 -0.640625 L 0.59375 -0.640625 L 0.59375 -0.390625 Z M 1.296875 -0.390625 "/></g></g></g><g fill="#ffffff" fill-opacity="1"><g transform="translate(99.734626, 30.649147)"><g><path d="M 1.125 -1.09375 C 1.082031 -1.125 1.035156 -1.148438 0.984375 -1.171875 C 0.941406 -1.191406 0.894531 -1.207031 0.84375 -1.21875 C 0.789062 -1.238281 0.742188 -1.25 0.703125 -1.25 C 0.660156 -1.25 0.625 -1.238281 0.59375 -1.21875 C 0.570312 -1.207031 0.5625 -1.191406 0.5625 -1.171875 C 0.5625 -1.148438 0.566406 -1.128906 0.578125 -1.109375 C 0.597656 -1.097656 0.617188 -1.085938 0.640625 -1.078125 C 0.671875 -1.066406 0.703125 -1.054688 0.734375 -1.046875 C 0.773438 -1.035156 0.820312 -1.019531 0.875 -1 C 0.945312 -0.976562 1.007812 -0.953125 1.0625 -0.921875 C 1.125 -0.898438 1.175781 -0.867188 1.21875 -0.828125 C 1.269531 -0.796875 1.304688 -0.75 1.328125 -0.6875 C 1.347656 -0.632812 1.359375 -0.570312 1.359375 -0.5 C 1.359375 -0.394531 1.335938 -0.3125 1.296875 -0.25 C 1.265625 -0.1875 1.21875 -0.132812 1.15625 -0.09375 C 1.101562 -0.0507812 1.039062 -0.0195312 0.96875 0 C 0.894531 0.0078125 0.816406 0.015625 0.734375 0.015625 C 0.679688 0.015625 0.625 0.0078125 0.5625 0 C 0.5 0 0.4375 -0.0078125 0.375 -0.03125 C 0.3125 -0.0507812 0.25 -0.0703125 0.1875 -0.09375 C 0.132812 -0.113281 0.0820312 -0.140625 0.03125 -0.171875 L 0.21875 -0.5625 C 0.269531 -0.53125 0.328125 -0.5 0.390625 -0.46875 C 0.441406 -0.445312 0.5 -0.425781 0.5625 -0.40625 C 0.625 -0.394531 0.6875 -0.390625 0.75 -0.390625 C 0.789062 -0.390625 0.820312 -0.394531 0.84375 -0.40625 C 0.863281 -0.414062 0.875 -0.429688 0.875 -0.453125 C 0.875 -0.472656 0.863281 -0.488281 0.84375 -0.5 C 0.820312 -0.519531 0.796875 -0.535156 0.765625 -0.546875 C 0.734375 -0.566406 0.695312 -0.582031 0.65625 -0.59375 C 0.613281 -0.601562 0.566406 -0.617188 0.515625 -0.640625 C 0.441406 -0.660156 0.378906 -0.6875 0.328125 -0.71875 C 0.273438 -0.75 0.234375 -0.78125 0.203125 -0.8125 C 0.171875 -0.84375 0.144531 -0.878906 0.125 -0.921875 C 0.101562 -0.972656 0.09375 -1.03125 0.09375 -1.09375 C 0.09375 -1.1875 0.109375 -1.265625 0.140625 -1.328125 C 0.179688 -1.398438 0.226562 -1.457031 0.28125 -1.5 C 0.34375 -1.550781 0.410156 -1.585938 0.484375 -1.609375 C 0.554688 -1.628906 0.628906 -1.640625 0.703125 -1.640625 C 0.765625 -1.640625 0.820312 -1.632812 0.875 -1.625 C 0.9375 -1.613281 0.992188 -1.597656 1.046875 -1.578125 C 1.097656 -1.566406 1.144531 -1.550781 1.1875 -1.53125 C 1.238281 -1.507812 1.285156 -1.488281 1.328125 -1.46875 Z M 1.125 -1.09375 "/></g></g></g><g fill="#ffffff" fill-opacity="1"><g transform="translate(101.149235, 30.649147)"><g><path d="M 1.125 -1.09375 C 1.082031 -1.125 1.035156 -1.148438 0.984375 -1.171875 C 0.941406 -1.191406 0.894531 -1.207031 0.84375 -1.21875 C 0.789062 -1.238281 0.742188 -1.25 0.703125 -1.25 C 0.660156 -1.25 0.625 -1.238281 0.59375 -1.21875 C 0.570312 -1.207031 0.5625 -1.191406 0.5625 -1.171875 C 0.5625 -1.148438 0.566406 -1.128906 0.578125 -1.109375 C 0.597656 -1.097656 0.617188 -1.085938 0.640625 -1.078125 C 0.671875 -1.066406 0.703125 -1.054688 0.734375 -1.046875 C 0.773438 -1.035156 0.820312 -1.019531 0.875 -1 C 0.945312 -0.976562 1.007812 -0.953125 1.0625 -0.921875 C 1.125 -0.898438 1.175781 -0.867188 1.21875 -0.828125 C 1.269531 -0.796875 1.304688 -0.75 1.328125 -0.6875 C 1.347656 -0.632812 1.359375 -0.570312 1.359375 -0.5 C 1.359375 -0.394531 1.335938 -0.3125 1.296875 -0.25 C 1.265625 -0.1875 1.21875 -0.132812 1.15625 -0.09375 C 1.101562 -0.0507812 1.039062 -0.0195312 0.96875 0 C 0.894531 0.0078125 0.816406 0.015625 0.734375 0.015625 C 0.679688 0.015625 0.625 0.0078125 0.5625 0 C 0.5 0 0.4375 -0.0078125 0.375 -0.03125 C 0.3125 -0.0507812 0.25 -0.0703125 0.1875 -0.09375 C 0.132812 -0.113281 0.0820312 -0.140625 0.03125 -0.171875 L 0.21875 -0.5625 C 0.269531 -0.53125 0.328125 -0.5 0.390625 -0.46875 C 0.441406 -0.445312 0.5 -0.425781 0.5625 -0.40625 C 0.625 -0.394531 0.6875 -0.390625 0.75 -0.390625 C 0.789062 -0.390625 0.820312 -0.394531 0.84375 -0.40625 C 0.863281 -0.414062 0.875 -0.429688 0.875 -0.453125 C 0.875 -0.472656 0.863281 -0.488281 0.84375 -0.5 C 0.820312 -0.519531 0.796875 -0.535156 0.765625 -0.546875 C 0.734375 -0.566406 0.695312 -0.582031 0.65625 -0.59375 C 0.613281 -0.601562 0.566406 -0.617188 0.515625 -0.640625 C 0.441406 -0.660156 0.378906 -0.6875 0.328125 -0.71875 C 0.273438 -0.75 0.234375 -0.78125 0.203125 -0.8125 C 0.171875 -0.84375 0.144531 -0.878906 0.125 -0.921875 C 0.101562 -0.972656 0.09375 -1.03125 0.09375 -1.09375 C 0.09375 -1.1875 0.109375 -1.265625 0.140625 -1.328125 C 0.179688 -1.398438 0.226562 -1.457031 0.28125 -1.5 C 0.34375 -1.550781 0.410156 -1.585938 0.484375 -1.609375 C 0.554688 -1.628906 0.628906 -1.640625 0.703125 -1.640625 C 0.765625 -1.640625 0.820312 -1.632812 0.875 -1.625 C 0.9375 -1.613281 0.992188 -1.597656 1.046875 -1.578125 C 1.097656 -1.566406 1.144531 -1.550781 1.1875 -1.53125 C 1.238281 -1.507812 1.285156 -1.488281 1.328125 -1.46875 Z M 1.125 -1.09375 "/></g></g></g><g fill="#ffffff" fill-opacity="1"><g transform="translate(102.563844, 30.649147)"><g><path d="M -0.015625 0 L 0.59375 -1.625 L 0.953125 -1.625 L 1.5625 0 L 1.09375 0 L 0.984375 -0.3125 L 0.546875 -0.3125 L 0.453125 0 Z M 0.765625 -1.171875 L 0.625 -0.625 L 0.921875 -0.625 Z M 0.765625 -1.171875 "/></g></g></g><g fill="#ffffff" fill-opacity="1"><g transform="translate(104.102261, 30.649147)"><g><path d="M 0.140625 0 L 0.140625 -1.625 L 0.890625 -1.625 C 0.972656 -1.625 1.046875 -1.609375 1.109375 -1.578125 C 1.171875 -1.546875 1.226562 -1.503906 1.28125 -1.453125 C 1.332031 -1.398438 1.367188 -1.335938 1.390625 -1.265625 C 1.421875 -1.203125 1.4375 -1.132812 1.4375 -1.0625 C 1.4375 -0.96875 1.414062 -0.878906 1.375 -0.796875 C 1.332031 -0.710938 1.273438 -0.644531 1.203125 -0.59375 L 1.578125 0 L 1.0625 0 L 0.75 -0.5 L 0.59375 -0.5 L 0.59375 0 Z M 0.59375 -0.890625 L 0.875 -0.890625 C 0.894531 -0.890625 0.914062 -0.90625 0.9375 -0.9375 C 0.96875 -0.96875 0.984375 -1.007812 0.984375 -1.0625 C 0.984375 -1.125 0.96875 -1.164062 0.9375 -1.1875 C 0.914062 -1.21875 0.890625 -1.234375 0.859375 -1.234375 L 0.59375 -1.234375 Z M 0.59375 -0.890625 "/></g></g></g><g fill="#ffffff" fill-opacity="1"><g transform="translate(105.675067, 30.649147)"><g><path d="M 0.453125 -1.625 L 0.75 -0.921875 L 1.046875 -1.625 L 1.53125 -1.625 L 0.96875 -0.546875 L 0.96875 0 L 0.53125 0 L 0.53125 -0.546875 L -0.03125 -1.625 Z M 0.453125 -1.625 "/></g></g></g><g fill="#ffffff" fill-opacity="1"><g transform="translate(107.169921, 30.649147)"><g/></g></g><g fill="#ff5757" fill-opacity="1"><g transform="translate(107.683607, 30.649147)"><g><path d="M 0.140625 0 L 0.140625 -1.625 L 0.59375 -1.625 L 0.59375 -0.390625 L 1.328125 -0.390625 L 1.328125 0 Z M 0.140625 0 "/></g></g></g><g fill="#ff5757" fill-opacity="1"><g transform="translate(109.031726, 30.649147)"><g><path d="M 0.140625 0 L 0.140625 -1.625 L 0.59375 -1.625 L 0.59375 0 Z M 0.140625 0 "/></g></g></g><g fill="#ff5757" fill-opacity="1"><g transform="translate(109.75852, 30.649147)"><g><path d="M 1.53125 -0.421875 C 1.53125 -0.347656 1.515625 -0.285156 1.484375 -0.234375 C 1.453125 -0.179688 1.410156 -0.132812 1.359375 -0.09375 C 1.304688 -0.0625 1.242188 -0.0351562 1.171875 -0.015625 C 1.097656 -0.00390625 1.019531 0 0.9375 0 L 0.140625 0 L 0.140625 -1.625 L 1.09375 -1.625 C 1.144531 -1.625 1.191406 -1.613281 1.234375 -1.59375 C 1.285156 -1.570312 1.328125 -1.539062 1.359375 -1.5 C 1.390625 -1.457031 1.410156 -1.410156 1.421875 -1.359375 C 1.441406 -1.316406 1.453125 -1.269531 1.453125 -1.21875 C 1.453125 -1.132812 1.429688 -1.054688 1.390625 -0.984375 C 1.359375 -0.921875 1.300781 -0.875 1.21875 -0.84375 C 1.3125 -0.8125 1.382812 -0.757812 1.4375 -0.6875 C 1.5 -0.625 1.53125 -0.535156 1.53125 -0.421875 Z M 1.078125 -0.515625 C 1.078125 -0.546875 1.066406 -0.578125 1.046875 -0.609375 C 1.023438 -0.640625 0.992188 -0.65625 0.953125 -0.65625 L 0.59375 -0.65625 L 0.59375 -0.375 L 0.9375 -0.375 C 0.976562 -0.375 1.007812 -0.382812 1.03125 -0.40625 C 1.0625 -0.4375 1.078125 -0.472656 1.078125 -0.515625 Z M 0.59375 -1.25 L 0.59375 -1 L 0.890625 -1 C 0.921875 -1 0.945312 -1.003906 0.96875 -1.015625 C 1 -1.035156 1.015625 -1.070312 1.015625 -1.125 C 1.015625 -1.164062 1.003906 -1.195312 0.984375 -1.21875 C 0.960938 -1.238281 0.9375 -1.25 0.90625 -1.25 Z M 0.59375 -1.25 "/></g></g></g><g fill="#ff5757" fill-opacity="1"><g transform="translate(111.338203, 30.649147)"><g><path d="M 0.140625 0 L 0.140625 -1.625 L 0.890625 -1.625 C 0.972656 -1.625 1.046875 -1.609375 1.109375 -1.578125 C 1.171875 -1.546875 1.226562 -1.503906 1.28125 -1.453125 C 1.332031 -1.398438 1.367188 -1.335938 1.390625 -1.265625 C 1.421875 -1.203125 1.4375 -1.132812 1.4375 -1.0625 C 1.4375 -0.96875 1.414062 -0.878906 1.375 -0.796875 C 1.332031 -0.710938 1.273438 -0.644531 1.203125 -0.59375 L 1.578125 0 L 1.0625 0 L 0.75 -0.5 L 0.59375 -0.5 L 0.59375 0 Z M 0.59375 -0.890625 L 0.875 -0.890625 C 0.894531 -0.890625 0.914062 -0.90625 0.9375 -0.9375 C 0.96875 -0.96875 0.984375 -1.007812 0.984375 -1.0625 C 0.984375 -1.125 0.96875 -1.164062 0.9375 -1.1875 C 0.914062 -1.21875 0.890625 -1.234375 0.859375 -1.234375 L 0.59375 -1.234375 Z M 0.59375 -0.890625 "/></g></g></g><g fill="#ff5757" fill-opacity="1"><g transform="translate(112.91101, 30.649147)"><g><path d="M -0.015625 0 L 0.59375 -1.625 L 0.953125 -1.625 L 1.5625 0 L 1.09375 0 L 0.984375 -0.3125 L 0.546875 -0.3125 L 0.453125 0 Z M 0.765625 -1.171875 L 0.625 -0.625 L 0.921875 -0.625 Z M 0.765625 -1.171875 "/></g></g></g><g fill="#ff5757" fill-opacity="1"><g transform="translate(114.449427, 30.649147)"><g><path d="M 0.140625 0 L 0.140625 -1.625 L 0.890625 -1.625 C 0.972656 -1.625 1.046875 -1.609375 1.109375 -1.578125 C 1.171875 -1.546875 1.226562 -1.503906 1.28125 -1.453125 C 1.332031 -1.398438 1.367188 -1.335938 1.390625 -1.265625 C 1.421875 -1.203125 1.4375 -1.132812 1.4375 -1.0625 C 1.4375 -0.96875 1.414062 -0.878906 1.375 -0.796875 C 1.332031 -0.710938 1.273438 -0.644531 1.203125 -0.59375 L 1.578125 0 L 1.0625 0 L 0.75 -0.5 L 0.59375 -0.5 L 0.59375 0 Z M 0.59375 -0.890625 L 0.875 -0.890625 C 0.894531 -0.890625 0.914062 -0.90625 0.9375 -0.9375 C 0.96875 -0.96875 0.984375 -1.007812 0.984375 -1.0625 C 0.984375 -1.125 0.96875 -1.164062 0.9375 -1.1875 C 0.914062 -1.21875 0.890625 -1.234375 0.859375 -1.234375 L 0.59375 -1.234375 Z M 0.59375 -0.890625 "/></g></g></g><g fill="#ff5757" fill-opacity="1"><g transform="translate(116.022233, 30.649147)"><g><path d="M 0.140625 0 L 0.140625 -1.625 L 0.59375 -1.625 L 0.59375 0 Z M 0.140625 0 "/></g></g></g><g fill="#ff5757" fill-opacity="1"><g transform="translate(116.749026, 30.649147)"><g><path d="M 1.296875 -0.390625 L 1.296875 0 L 0.140625 0 L 0.140625 -1.625 L 1.28125 -1.625 L 1.28125 -1.234375 L 0.59375 -1.234375 L 0.59375 -1.015625 L 1.1875 -1.015625 L 1.1875 -0.640625 L 0.59375 -0.640625 L 0.59375 -0.390625 Z M 1.296875 -0.390625 "/></g></g></g><g fill="#ff5757" fill-opacity="1"><g transform="translate(118.11778, 30.649147)"><g><path d="M 1.125 -1.09375 C 1.082031 -1.125 1.035156 -1.148438 0.984375 -1.171875 C 0.941406 -1.191406 0.894531 -1.207031 0.84375 -1.21875 C 0.789062 -1.238281 0.742188 -1.25 0.703125 -1.25 C 0.660156 -1.25 0.625 -1.238281 0.59375 -1.21875 C 0.570312 -1.207031 0.5625 -1.191406 0.5625 -1.171875 C 0.5625 -1.148438 0.566406 -1.128906 0.578125 -1.109375 C 0.597656 -1.097656 0.617188 -1.085938 0.640625 -1.078125 C 0.671875 -1.066406 0.703125 -1.054688 0.734375 -1.046875 C 0.773438 -1.035156 0.820312 -1.019531 0.875 -1 C 0.945312 -0.976562 1.007812 -0.953125 1.0625 -0.921875 C 1.125 -0.898438 1.175781 -0.867188 1.21875 -0.828125 C 1.269531 -0.796875 1.304688 -0.75 1.328125 -0.6875 C 1.347656 -0.632812 1.359375 -0.570312 1.359375 -0.5 C 1.359375 -0.394531 1.335938 -0.3125 1.296875 -0.25 C 1.265625 -0.1875 1.21875 -0.132812 1.15625 -0.09375 C 1.101562 -0.0507812 1.039062 -0.0195312 0.96875 0 C 0.894531 0.0078125 0.816406 0.015625 0.734375 0.015625 C 0.679688 0.015625 0.625 0.0078125 0.5625 0 C 0.5 0 0.4375 -0.0078125 0.375 -0.03125 C 0.3125 -0.0507812 0.25 -0.0703125 0.1875 -0.09375 C 0.132812 -0.113281 0.0820312 -0.140625 0.03125 -0.171875 L 0.21875 -0.5625 C 0.269531 -0.53125 0.328125 -0.5 0.390625 -0.46875 C 0.441406 -0.445312 0.5 -0.425781 0.5625 -0.40625 C 0.625 -0.394531 0.6875 -0.390625 0.75 -0.390625 C 0.789062 -0.390625 0.820312 -0.394531 0.84375 -0.40625 C 0.863281 -0.414062 0.875 -0.429688 0.875 -0.453125 C 0.875 -0.472656 0.863281 -0.488281 0.84375 -0.5 C 0.820312 -0.519531 0.796875 -0.535156 0.765625 -0.546875 C 0.734375 -0.566406 0.695312 -0.582031 0.65625 -0.59375 C 0.613281 -0.601562 0.566406 -0.617188 0.515625 -0.640625 C 0.441406 -0.660156 0.378906 -0.6875 0.328125 -0.71875 C 0.273438 -0.75 0.234375 -0.78125 0.203125 -0.8125 C 0.171875 -0.84375 0.144531 -0.878906 0.125 -0.921875 C 0.101562 -0.972656 0.09375 -1.03125 0.09375 -1.09375 C 0.09375 -1.1875 0.109375 -1.265625 0.140625 -1.328125 C 0.179688 -1.398438 0.226562 -1.457031 0.28125 -1.5 C 0.34375 -1.550781 0.410156 -1.585938 0.484375 -1.609375 C 0.554688 -1.628906 0.628906 -1.640625 0.703125 -1.640625 C 0.765625 -1.640625 0.820312 -1.632812 0.875 -1.625 C 0.9375 -1.613281 0.992188 -1.597656 1.046875 -1.578125 C 1.097656 -1.566406 1.144531 -1.550781 1.1875 -1.53125 C 1.238281 -1.507812 1.285156 -1.488281 1.328125 -1.46875 Z M 1.125 -1.09375 "/></g></g></g></svg>